# xmcd CD database file
# Copyright (C) 1993-1998 Ti Kan
# 
# Track frame offsets:
#     150
#     27659
#     40972
#     64138
#     79152
#     93837
#     115432
#     129127
#     143257
#     161345
#     177624
#     192696
#     205970
#     220923
#     241027
#     257402
# 
# Disc length: 3620 seconds
# 
# Revision: 1
# Processed by: cddbd v1.4b41PL1 Copyright (c) Steve Scherf et al.
# Submitted via: DiscPlay 4.0.4
# 
DISCID=de0e2210
DTITLE=Eric Clapton - From the Cradle
DYEAR=1900
DGENRE=
TTITLE0=Blues before Sunrise
TTITLE1=Thrid Degree
TTITLE2=Reconsider baby
TTITLE3=Hoochie Coochie
TTITLE4=Five long years
TTITLE5=I'm tore down
TTITLE6=How long blues
TTITLE7=Going away, baby
TTITLE8=Blues leave me alone
TTITLE9=Sinner's prayer
TTITLE10=Motherless Child
TTITLE11=It hurts me too
TTITLE12=Someday after a while
TTITLE13=Standing round crying
TTITLE14=Driftin'
TTITLE15=Groaning the blues
EXTD=
EXTT0=
EXTT1=
EXTT2=
EXTT3=
EXTT4=
EXTT5=
EXTT6=
EXTT7=
EXTT8=
EXTT9=
EXTT10=
EXTT11=
EXTT12=
EXTT13=
EXTT14=
EXTT15=
PLAYORDER=
